<svg width="37" height="36" viewBox="0 0 37 36" fill="none" xmlns="http://www.w3.org/2000/svg">
<ellipse rx="9" ry="9" transform="matrix(4.37114e-08 -1 -1 -4.37114e-08 18.6665 21)" fill="#FF6551"/>
<path d="M15.2701 18.3964C15.0748 18.2012 14.7582 18.2012 14.563 18.3964C14.3677 18.5917 14.3677 18.9083 14.563 19.1036L15.2701 18.3964ZM18.6665 22.5L18.313 22.8536L18.6665 23.2071L19.0201 22.8536L18.6665 22.5ZM22.7701 19.1036C22.9653 18.9083 22.9653 18.5917 22.7701 18.3964C22.5748 18.2012 22.2582 18.2012 22.063 18.3964L22.7701 19.1036ZM19.1665 7.5C19.1665 7.22386 18.9426 7 18.6665 7C18.3904 7 18.1665 7.22386 18.1665 7.5L19.1665 7.5ZM14.563 19.1036L18.313 22.8536L19.0201 22.1464L15.2701 18.3964L14.563 19.1036ZM19.0201 22.8536L22.7701 19.1036L22.063 18.3964L18.313 22.1464L19.0201 22.8536ZM19.1665 22.5L19.1665 7.5L18.1665 7.5L18.1665 22.5L19.1665 22.5Z" fill="#4A4A4A"/>
</svg>
